<svg width="1038" height="342" viewBox="0 0 1038 342" fill="none" xmlns="http://www.w3.org/2000/svg">
<path d="M69.7449 35.4699C69.3152 31.2602 72.4948 19.6619 76.591 19.576L127.493 18.6883C133.766 22.6116 141.042 30.5729 146.713 37.9613L297.785 40.1664C311.993 40.3669 325.829 37.6177 338.661 45.4071C347.398 50.7051 349.89 60.9 348 71.3527C346.395 80.2017 339.807 86.9029 328.149 90.9694L329.925 115.483C356.994 74.4456 385.553 42.4002 427.03 20.4638C450.462 8.09238 474.81 -1.58711 502.337 0.217052C519.123 1.33392 531.87 24.5017 522.589 38.5341L507.637 61.1005C526.571 54.3707 544.502 53.2538 560.372 63.8783C586.094 81.1181 572.001 108.095 579.306 117.574C588.787 129.888 647.709 122.643 693.856 128.8C725.68 133.038 751.833 152.512 776.009 172.186C807.203 197.558 828.687 229.146 853.378 263.511L853.55 201.052C859.68 144.464 912.1 123.473 968.415 131.692C1001.3 136.503 1025.7 160.96 1032.75 193.606C1042.35 238.052 1040.97 297.332 1003.96 322.275C970.592 344.784 896.947 344.984 878.586 310.448C873.831 301.484 868.589 293.466 862.029 285.819C856.672 298.563 848.938 306.066 837.996 301.885L791.763 284.216C784.745 307.355 751.518 314.972 723.532 317.836C682.054 322.103 641.751 323.936 600.044 323.191L558.968 322.447C525.024 342.464 481.198 348.879 443.301 333.329C427.832 327 424.195 309.331 416.69 296.587L370.715 218.607L358.484 228.172C370.314 237.164 380.139 245.469 386.527 258.184C401.938 288.912 329.295 314.113 276.388 286.822C254.704 297.332 234.395 308.586 211.536 314.772C158.343 329.177 68.9908 318.532 54.3119 307.361C43.3027 297.248 150.437 317.893 201.138 309.703C224.455 305.923 245.308 293.523 267.623 282.698C239.579 265.286 221.59 244.581 210.82 214.225C184.667 216.774 193.977 255.521 167.137 290.745C151.124 311.765 82.0048 319.64 49.2639 305.436C-3.41371 282.698 -8.54111 212.049 9.21861 158.325C26.9783 104.601 102.171 102.081 156.223 122.413L154.304 96.4106L101.34 95.7806C88.5358 95.6374 81.1741 77.653 78.8252 68.1167L72.5521 42.7152M485.551 120.409C479.479 101.222 481.799 88.077 490.135 75.1042L504.256 53.0533C493.629 50.39 486.955 46.524 483.546 38.7918C481.226 33.5225 482.171 18.2873 487.614 16.4545L509.327 9.12333C470.943 0.302965 415.171 30.6301 386.355 57.4062C365.988 76.307 351.093 98.0429 334.68 121.583L357.137 119.779L485.551 120.409ZM511.103 21.0366C508.038 18.2873 495.634 18.5451 492.913 21.2084C489.275 24.7881 489.103 33.723 491.137 37.5604C493.543 42.0852 502.624 46.6385 507.207 43.7175C513.165 39.9373 516.43 25.7617 511.103 21.0366ZM84.9839 36.014L136.773 36.9304C133.938 32.4916 127.493 26.449 123.912 26.4777L84.4969 26.9645C82.3199 26.9645 78.1378 29.8856 77.0779 31.6324C76.0181 33.3793 82.6064 35.9281 84.9839 35.9854V36.014ZM153.416 87.2179L142.531 44.8057L81.1741 43.5743L88.4499 75.2188C90.5982 84.4974 100.968 90.2535 109.676 89.738L153.387 87.2179H153.416ZM328.206 81.3759C336.083 83.9819 343.359 68.5176 341.411 60.9287C339.693 54.2275 331.128 47.8127 321.904 47.6981L194.951 46.123L151.268 45.0921L161.007 88.0484L241.928 85.3565C257.797 84.841 277.763 86.4447 291.655 82.6646C305.548 78.8844 311.048 75.677 328.235 81.3472L328.206 81.3759ZM505.23 100.477C506.72 81.0609 539.69 77.7962 566.874 80.3736C552.981 59.7259 522.646 58.8381 505.173 73.1569C491.51 84.3255 489.132 104.286 492.082 120.638L571.658 123.96C571.858 122.385 569.251 115.455 567.561 114.653C540.549 115.913 504.056 115.54 505.202 100.506L505.23 100.477ZM567.418 106.777C571.256 96.2674 565.356 86.7884 557.049 87.3325L524.623 89.4517C520.297 89.738 513.824 97.4988 512.621 103.112C530.696 108.238 548.713 108.524 567.418 106.777ZM61.7243 256.609C59.2609 271.271 50.5243 282.297 39.983 293.093C70.2318 313.455 139.237 306.897 159.059 287.91C185.928 262.165 174.814 214.054 208.844 206.264C211.25 152.597 256.508 146.498 306.293 136.475C299.733 133.181 288.505 127.482 288.361 121.812L287.645 92.115L193.347 93.8618L161.15 95.5801L165.59 128.857C200.107 152.827 191.972 196.184 183.207 193.807C166.335 189.196 160.262 158.697 157.799 133.983C138.75 118.777 111.452 119.263 87.5046 118.92C65.5055 118.576 45.3396 123.187 29.3558 141.085C66.4221 142.431 68.7996 214.913 61.7816 256.609H61.7243ZM321.475 124.704L320.873 90.9408L296.181 92.43C293.116 103.198 292.572 114.595 297.957 123.53C301.337 129.143 318.18 129.029 321.446 124.704H321.475ZM403.685 170.811C424.968 143.519 452.381 135.272 486.354 128.628L356.278 127.368C347.942 127.282 338.719 130.403 330.727 133.267C341.526 160.616 354.33 181.55 371.173 206.465L403.656 170.84L403.685 170.811ZM781.022 269.152C771.483 247.015 759.194 234.014 745.588 219.495C715.311 190.17 684.145 161.275 645.131 143.033C620.984 131.749 591.967 130.489 565.843 130.804L518.98 131.377C555.044 139.31 586.18 161.017 590.42 200.079L590.878 256.838L723.245 257.21C744.328 257.268 762.173 263.052 780.993 269.124L781.022 269.152ZM844.556 294.611C849.826 295.327 856.672 282.154 854.295 278.603L845.615 265.687C800.328 198.246 735.219 122.413 647.681 134.642C690.447 159.385 728.974 189.225 761.858 226.339C774.949 241.145 784.86 256.008 791.133 274.737C807.117 283.127 825.163 291.976 844.584 294.611H844.556ZM351.723 225.022L365.731 211.104C348.171 185.932 334.365 162.191 323.394 135.129C296.153 154.287 263.784 144.98 235.626 166.573C222.564 176.567 214.429 191.344 217.322 205.892C264.214 204.489 311.678 203.973 351.752 225.022H351.723ZM433.733 314.228C440.092 323.907 449.917 330.437 461.49 332.04C491.223 336.193 520.498 335.391 548.14 319.841C523.764 306.496 510.73 284.101 518.894 259.301L582.943 256.523L584.147 211.39C584.834 185.302 571.342 160.816 546.593 149.018C506.691 130.002 452.696 133.353 419.525 164.367L375.67 213.023L406.378 264.255C404.802 235.532 404.115 212.965 410.674 187.879C416.46 174.19 425.34 161.131 439.749 156.091C482.257 141.2 511.418 241.288 462.292 307.441C454.988 317.263 444.79 318.151 433.705 314.171L433.733 314.228ZM932.724 304.949C926.193 321.989 910.095 320.013 894.598 318.495C925.993 336.221 970.621 335.534 1001.79 314.629C1034.9 292.435 1035.44 224.191 1022.9 186.218C1006.4 136.303 948.192 127.883 903.478 144.894C876.666 155.118 860.224 181.35 860.31 210.932L860.482 273.62L865.867 279.748L867.185 216.516C867.529 199.735 875.406 177.283 890.387 169.522C928.198 149.934 961.741 228.974 932.667 304.921L932.724 304.949ZM181.087 185.96C186.644 167.231 181.431 150.679 165.791 140.111C167.567 156.864 171.29 172.558 181.087 185.96ZM48.8915 163.68C47.2874 158.411 38.0352 147.328 33.7098 149.906C0.166878 169.751 2.63032 248.848 31.9625 286.593C65.8778 271.701 60.2348 201.195 48.8915 163.68ZM439.147 308.214C442.699 311.192 453.269 308.3 456.076 304.405C499.616 244.008 476.385 162.792 449.373 161.819C411.562 160.444 406.865 231.666 418.58 280.722C421.072 291.117 429.207 299.938 439.118 308.214H439.147ZM901.788 310.505C904.824 312.739 913.647 313.369 917.027 311.937C934.758 304.348 938.31 249.908 933.497 218.092C929.487 191.487 911.584 169.007 895.171 174.562C871.826 182.438 866.354 255.263 878.356 293.294L901.788 310.505ZM346.052 229.661C319.87 218.55 293.374 213.309 264.844 213.338L218.239 213.424C229.095 242.949 248.545 264.198 276.331 278.517C301.309 263.654 323.136 248.991 346.023 229.632L346.052 229.661ZM379.108 257.354L353.528 233.613L285.153 282.641C324.74 300.453 390.05 289.084 379.079 257.382L379.108 257.354ZM581.74 264.799L523.964 265.974C521.701 287.91 535.078 310.534 555.846 312.939C572.402 303.832 580.108 284.273 581.769 264.799H581.74ZM785.118 281.18C771.569 274.994 755.499 265.659 740.432 265.573L589.131 264.713C587.699 285.304 580.938 298.649 566.616 316.261L657.191 314.829C697.981 314.199 776.668 311.45 785.118 281.18Z" fill="#F80000"/>
<path d="M507.538 60.4434C526.543 53.6884 544.661 52.5267 560.717 63.2764H560.718C573.754 72.0132 576.702 83.2432 577.313 93.4199C577.465 95.9582 577.473 98.4323 577.456 100.781C577.439 103.136 577.397 105.355 577.451 107.41C577.559 111.542 578.052 114.853 579.77 117.082L579.874 117.217V117.326C579.906 117.365 579.973 117.427 580.093 117.507C580.338 117.67 580.719 117.857 581.232 118.067C582.252 118.485 583.698 118.951 585.381 119.456C588.728 120.461 592.996 121.617 596.495 122.831L596.316 123.803C592.479 123.694 589.306 123.805 585.594 123.888C581.884 123.97 577.652 124.025 571.724 123.803L571.178 123.782L571.248 123.24C571.263 123.117 571.254 122.901 571.201 122.588C571.149 122.284 571.061 121.918 570.943 121.511C570.706 120.696 570.352 119.736 569.938 118.797C569.524 117.857 569.055 116.949 568.593 116.235C568.362 115.878 568.138 115.578 567.929 115.348C567.764 115.166 567.623 115.045 567.509 114.972C554.031 115.597 538.182 115.814 525.818 113.998C519.62 113.088 514.246 111.66 510.481 109.482C506.699 107.295 504.465 104.298 504.771 100.281L504.786 100.097L504.817 100.064C505.685 90.1226 514.574 84.4179 526.365 81.5059C537.958 78.6426 552.583 78.4093 565.919 79.5918C552.183 60.3957 523.525 59.4202 506.377 72.7041L505.558 73.3574C492.101 84.3574 489.626 103.636 492.563 119.912L492.672 120.521L492.053 120.5L485.522 120.271L485.169 120.259L485.063 119.922C482.011 110.28 481.078 102.236 481.972 94.9531C482.866 87.6676 485.584 81.18 489.782 74.6475L489.803 74.6143L489.831 74.585L496.943 66.6357L496.996 66.5771L497.064 66.5371L507.453 60.4824L507.494 60.459L507.538 60.4434ZM566.42 92.9688C564.467 89.4965 561.085 87.388 557.15 87.6455H557.149L524.723 89.7637C523.771 89.8269 522.644 90.311 521.445 91.1426C520.254 91.9686 519.032 93.1099 517.898 94.4248C515.749 96.9162 513.967 99.9686 513.288 102.571C531.024 107.521 548.723 107.818 567.121 106.122C568.869 101.1 568.338 96.3771 566.42 92.9688Z" fill="white" stroke="white"/>
</svg>
